<svg width="314" height="116" viewBox="0 0 314 116" fill="none" xmlns="http://www.w3.org/2000/svg">
<path d="M307.753 92.0362C307.753 93.1777 308.702 94.1207 309.852 94.1207H310.601C311.751 94.1207 312.7 93.1777 312.7 92.0362V84.7903C312.7 83.6488 311.751 82.7058 310.601 82.7058H309.852C308.702 82.7058 307.753 83.6488 307.753 84.7903V92.0362Z" fill="#FFFBEB" stroke="#284356" stroke-width="1.2917" stroke-miterlimit="10" stroke-linecap="round" stroke-linejoin="round"/>
<path d="M40.2805 99.5799C40.2805 97.8925 40.3804 94.9147 40.9301 92.6317C42.8292 85.0383 50.2257 78.8346 58.9216 78.8346C70.466 78.8346 79.1119 88.8598 77.9624 99.9273C77.9624 99.9769 77.9624 99.9769 77.9624 99.9769C77.9125 100.275 77.8625 100.672 78.2623 100.672H80.8111C81.2608 100.672 81.6107 100.275 81.6107 99.7784C81.6107 98.1406 81.7106 94.6169 82.3103 92.1354C84.2094 84.542 91.6059 79.3805 99.652 79.2316C112.146 78.9835 120.642 90.2495 117.593 102.359L224.792 102.458C221.694 90.2991 230.839 78.4872 243.333 78.4872C252.129 78.4872 262.374 84.8894 262.424 98.5377C262.424 99.9273 263.524 101.118 264.973 101.118H302.855C306.153 101.118 308.202 95.3613 308.202 95.3613C310.501 89.8028 309.202 68.6604 304.454 42.704C303.404 37.0958 298.057 19.6757 281.715 11.7349C264.273 3.24815 248.631 3 247.131 3H87.8077H20.49C18.9907 3 17.6913 3.9926 17.2915 5.43187C9.19534 34.0683 3.54807 60.1737 3.54807 63.6478V93.6739C3.54807 95.1628 4.54758 96.4532 5.99689 96.8502L40.2805 99.5799Z" fill="#51C8FC" stroke="#51C8FC" stroke-width="5.1669" stroke-miterlimit="10" stroke-linecap="round" stroke-linejoin="round"/>
<g opacity="0.21">
<path d="M5.99671 96.8998C4.54741 96.5028 3.54787 95.2124 3.54787 93.7235V63.6974C3.54787 60.2233 9.19517 34.1179 17.2913 5.48143C17.6911 4.04216 18.9905 3.04956 20.4898 3.04956H29.0857C27.5864 3.04956 26.287 4.04216 25.8872 5.48143C17.7411 34.0683 12.1438 60.1736 12.1438 63.6477V89.1079C12.1438 90.5968 13.1433 91.8872 14.5926 92.2842C17.991 93.2272 37.9814 94.0213 40.2803 94.6665C40.2803 94.7657 40.2803 99.4309 40.2803 99.5302L5.99671 96.8998Z" fill="#51C8FC"/>
</g>
<path d="M224.792 102.458C221.694 90.2991 230.839 78.4872 243.333 78.4872C252.129 78.4872 262.374 84.8894 262.424 98.5377C262.424 99.9273 263.524 101.118 264.973 101.118H302.855C306.153 101.118 308.202 95.3613 308.202 95.3613C310.501 89.8028 309.202 68.6604 304.454 42.704C303.404 37.0958 298.057 19.6757 281.715 11.7349C264.273 3.24815 248.631 3 247.131 3H87.8077H20.49C18.9907 3 17.6913 3.9926 17.2915 5.43187C9.19535 34.0683 3.54806 60.1737 3.54806 63.6478V93.6739C3.54806 95.1628 4.54759 96.4532 5.9969 96.8502L40.2805 99.5303C40.2805 97.8428 40.3804 94.865 40.9301 92.5821C42.8292 84.9887 50.2257 78.7849 58.9215 78.7849C70.466 78.7849 79.1119 88.8102 77.9624 99.8777C77.9624 99.9273 77.9624 99.9273 77.9624 99.9273C77.9125 100.225 77.8625 100.622 78.2623 100.622H80.8111C81.2608 100.622 81.6107 100.225 81.6107 99.7288C81.6107 98.091 81.7106 94.5673 82.3103 92.0858C84.2094 84.4924 91.6059 79.3309 99.652 79.182C112.146 78.9338 120.642 90.1998 117.593 102.31" stroke="#51C8FC" stroke-width="5.1669" stroke-miterlimit="10" stroke-linecap="round" stroke-linejoin="round"/>
<path d="M273.319 15.2089C272.12 14.6134 270.77 14.7126 269.621 15.3578C268.521 16.0527 267.822 17.2438 267.822 18.5838V90.3983C267.822 91.9369 269.071 93.1776 270.62 93.1776H292.81C294.359 93.1776 295.608 91.9369 295.608 90.3983C295.608 90.3983 295.608 82.2094 295.608 62.2085C295.608 30.6935 281.415 19.1793 273.319 15.2089Z" stroke="white" stroke-miterlimit="10" stroke-linecap="round" stroke-linejoin="round"/>
<path d="M14.1932 31.8351C13.8933 33.0758 14.7929 34.267 16.0923 34.267H210.199C225.342 34.267 239.285 42.4559 246.582 55.6575L258.826 77.842C259.676 78.4872 260.875 77.8421 260.875 76.7998V12.6283C260.875 11.2387 259.726 10.0972 258.326 10.0972H22.4392C20.94 10.0972 19.6406 11.0898 19.2408 12.529L14.1932 31.8351Z" fill="#FFFBEB" stroke="#284356" stroke-width="1.2917" stroke-miterlimit="10" stroke-linecap="round" stroke-linejoin="round"/>
<path d="M272.47 18.832C272.67 18.832 272.82 18.8817 272.97 18.9313C280.116 22.455 292.11 32.4803 292.11 59.9256V67.4198C292.11 68.7101 291.061 69.802 289.712 69.802H273.669C272.37 69.802 271.27 68.7598 271.27 67.4198V20.0232C271.27 19.6261 271.47 19.2787 271.82 19.0306C272.02 18.9313 272.27 18.832 272.47 18.832Z" fill="#FFFBEB" stroke="#51C8FC" stroke-width="1.2917" stroke-miterlimit="10" stroke-linecap="round" stroke-linejoin="round"/>
<path opacity="0.21" d="M271.22 24.986V19.7252C271.22 19.3282 271.42 18.9808 271.769 18.7326C271.969 18.6334 272.169 18.5837 272.369 18.5837C272.569 18.5837 272.719 18.6334 272.869 18.683C280.016 22.2067 292.01 32.232 292.01 59.6773V67.2211C292.01 68.4618 291.06 69.4544 289.861 69.5537V65.7322C289.911 38.8824 278.416 28.7083 271.22 24.986Z" fill="black"/>
<path d="M3.74898 91.0931C3.94889 91.0931 4.04883 90.9442 4.04883 90.7953V82.11C4.04883 81.9115 3.89891 81.8123 3.74898 81.8123H3.14927C1.55003 81.8123 0.300624 83.1026 0.300624 84.6412V88.2641C0.300624 89.8523 1.60001 91.0931 3.14927 91.0931H3.74898Z" fill="#EB4762"/>
<path d="M3.19884 82.0605C1.79951 82.0605 0.650074 83.202 0.650074 84.5916V88.2146C0.650074 89.6042 1.79951 90.7457 3.19884 90.7457H3.79856V82.0605H3.19884ZM3.19884 81.4153H3.79856C4.14839 81.4153 4.44824 81.7131 4.44824 82.0605V90.7457C4.44824 91.0931 4.14839 91.3909 3.79856 91.3909H3.19884C1.44968 91.3909 0.00039196 89.9516 0.00039196 88.2146V84.5916C0.00039196 82.8545 1.44968 81.4153 3.19884 81.4153Z" fill="#284356"/>
<path d="M243.333 114.419C252.729 114.419 260.325 106.826 260.325 97.5451C260.325 88.2147 252.679 80.6709 243.333 80.6709C233.938 80.6709 226.341 88.2643 226.341 97.5451C226.341 106.876 233.938 114.419 243.333 114.419Z" fill="#737987"/>
<path d="M243.334 81.9614C234.638 81.9614 227.641 88.9592 227.641 97.5452C227.641 106.181 234.688 113.129 243.334 113.129C252.03 113.129 259.026 106.131 259.026 97.5452C259.026 88.9592 251.98 81.9614 243.334 81.9614ZM243.334 79.3806C253.429 79.3806 261.625 87.5199 261.625 97.5452C261.625 107.57 253.429 115.71 243.334 115.71C233.239 115.71 225.043 107.57 225.043 97.5452C225.043 87.5199 233.239 79.3806 243.334 79.3806Z" fill="#284356"/>
<g opacity="0.21">
<path d="M243.334 89.257C235.938 89.257 229.691 94.3688 228.041 101.218C227.742 100.027 227.592 98.8355 227.592 97.5948C227.592 88.9592 234.638 82.011 243.284 82.011C251.98 82.011 258.977 89.0088 258.977 97.5948C258.977 98.8355 258.827 100.076 258.527 101.218C256.928 94.3688 250.731 89.257 243.334 89.257Z" fill="black"/>
</g>
<path d="M234.738 97.5451C234.738 102.26 238.586 106.081 243.334 106.081C248.082 106.081 251.93 102.26 251.93 97.5451C251.93 92.8303 248.082 89.0088 243.334 89.0088C238.586 89.0584 234.738 92.8303 234.738 97.5451Z" fill="#BEBEC0" stroke="#284356" stroke-width="2.5834" stroke-miterlimit="10" stroke-linecap="round" stroke-linejoin="round"/>
<path d="M238.336 97.5452C238.336 100.275 240.535 102.459 243.284 102.459C246.033 102.459 248.231 100.275 248.231 97.5452C248.231 94.8156 246.033 92.6318 243.284 92.6318C240.585 92.6318 238.336 94.8156 238.336 97.5452Z" fill="#737987" stroke="#284356" stroke-width="1.2917" stroke-miterlimit="10" stroke-linecap="round" stroke-linejoin="round"/>
<path d="M243.334 81.9614C234.638 81.9614 227.641 88.9592 227.641 97.5452C227.641 106.181 234.688 113.129 243.334 113.129C252.03 113.129 259.026 106.131 259.026 97.5452C259.026 88.9592 251.98 81.9614 243.334 81.9614ZM243.334 79.3806C253.429 79.3806 261.625 87.5199 261.625 97.5452C261.625 107.57 253.429 115.71 243.334 115.71C233.239 115.71 225.043 107.57 225.043 97.5452C225.043 87.5199 233.239 79.3806 243.334 79.3806Z" fill="#284356"/>
<path d="M271.87 7.66528C271.87 7.66528 292.41 10.4446 302.005 24.3906C309.601 35.4581 310.201 43.4485 310.201 52.9774C310.201 58.8834 310.201 68.1146 310.201 72.6309C310.201 74.0702 309.002 75.2613 307.552 75.2613H305.753C305.054 75.2613 304.354 74.9635 303.854 74.4672C303.354 73.9709 303.105 73.2761 303.105 72.5813C303.155 69.0575 303.205 62.556 303.205 55.9552C303.205 44.4411 303.354 40.2225 297.557 28.5595C291.71 16.9957 271.87 7.66528 271.87 7.66528Z" fill="#FFFBEB" stroke="#284356" stroke-width="1.2917" stroke-miterlimit="10" stroke-linecap="round" stroke-linejoin="round"/>
<path d="M114.945 51.9849H25.1383" stroke="white" stroke-miterlimit="10" stroke-linecap="round" stroke-linejoin="round"/>
<path d="M108.348 59.0322H18.5407" stroke="white" stroke-miterlimit="10" stroke-linecap="round" stroke-linejoin="round"/>
<path d="M99.9521 66.1294H10.1452" stroke="white" stroke-miterlimit="10" stroke-linecap="round" stroke-linejoin="round"/>
<path opacity="0.21" d="M300.006 27.2195C305.504 35.9544 306.303 44.2922 306.303 55.8063C306.303 60.3723 306.253 66.9731 306.203 70.5961C306.203 71.2909 306.453 71.9857 306.953 72.482C307.453 72.9783 308.152 73.2761 308.852 73.2761H310.151C309.852 74.4176 308.852 75.3109 307.603 75.3109H305.803C305.104 75.3109 304.404 75.0131 303.904 74.5168C303.405 74.0205 303.155 73.3257 303.155 72.6309C303.205 69.1072 303.255 62.6056 303.255 56.0049C303.255 44.4907 303.405 40.2722 297.607 28.6091C291.76 16.9957 271.92 7.66528 271.92 7.66528C271.92 7.66528 272.719 7.76454 274.069 8.06232C280.566 10.3949 293.01 16.0527 300.006 27.2195Z" fill="black"/>
<path d="M99.9515 114.419C109.347 114.419 116.943 106.826 116.943 97.5451C116.943 88.2147 109.297 80.6709 99.9515 80.6709C90.556 80.6709 82.9596 88.2643 82.9596 97.5451C82.9596 106.876 90.556 114.419 99.9515 114.419Z" fill="#737987"/>
<path d="M99.9519 81.9614C91.2561 81.9614 84.2595 88.9592 84.2595 97.5452C84.2595 106.181 91.3061 113.129 99.9519 113.129C108.648 113.129 115.644 106.131 115.644 97.5452C115.644 88.9592 108.598 81.9614 99.9519 81.9614ZM99.9519 79.3806C110.047 79.3806 118.243 87.5199 118.243 97.5452C118.243 107.57 110.047 115.71 99.9519 115.71C89.8568 115.71 81.6607 107.57 81.6607 97.5452C81.6607 87.5199 89.8568 79.3806 99.9519 79.3806Z" fill="#284356"/>
<g opacity="0.21">
<path d="M99.9522 89.257C92.5558 89.257 86.3088 94.3688 84.6596 101.218C84.3597 100.027 84.2098 98.8355 84.2098 97.5948C84.2098 88.9592 91.2564 82.011 99.9022 82.011C108.598 82.011 115.595 89.0088 115.595 97.5948C115.595 98.8355 115.445 100.076 115.145 101.218C113.546 94.3688 107.349 89.257 99.9522 89.257Z" fill="black"/>
</g>
<path d="M91.3561 97.5451C91.3561 102.26 95.2043 106.081 99.952 106.081C104.7 106.081 108.548 102.26 108.548 97.5451C108.548 92.8303 104.7 89.0088 99.952 89.0088C95.2043 89.0584 91.3561 92.8303 91.3561 97.5451Z" fill="#BEBEC0" stroke="#284356" stroke-width="2.5834" stroke-miterlimit="10" stroke-linecap="round" stroke-linejoin="round"/>
<path d="M94.9544 97.5452C94.9544 100.275 97.1533 102.459 99.902 102.459C102.651 102.459 104.85 100.275 104.85 97.5452C104.85 94.8156 102.651 92.6318 99.902 92.6318C97.2033 92.6318 94.9544 94.8156 94.9544 97.5452Z" fill="#737987" stroke="#284356" stroke-width="1.2917" stroke-miterlimit="10" stroke-linecap="round" stroke-linejoin="round"/>
<path d="M99.9519 81.9614C91.2561 81.9614 84.2595 88.9592 84.2595 97.5452C84.2595 106.181 91.3061 113.129 99.9519 113.129C108.648 113.129 115.644 106.131 115.644 97.5452C115.644 88.9592 108.598 81.9614 99.9519 81.9614ZM99.9519 79.3806C110.047 79.3806 118.243 87.5199 118.243 97.5452C118.243 107.57 110.047 115.71 99.9519 115.71C89.8568 115.71 81.6607 107.57 81.6607 97.5452C81.6607 87.5199 89.8568 79.3806 99.9519 79.3806Z" fill="#284356"/>
<path d="M59.1712 114.419C68.5667 114.419 76.1631 106.826 76.1631 97.5451C76.1631 88.2147 68.5168 80.6709 59.1712 80.6709C49.7757 80.6709 42.1794 88.2643 42.1794 97.5451C42.1794 106.876 49.7757 114.419 59.1712 114.419Z" fill="#737987"/>
<path d="M59.1717 81.9614C50.4758 81.9614 43.4792 88.9592 43.4792 97.5452C43.4792 106.181 50.5258 113.129 59.1717 113.129C67.8675 113.129 74.8641 106.131 74.8641 97.5452C74.8641 88.9592 67.8175 81.9614 59.1717 81.9614ZM59.1717 79.3806C69.2668 79.3806 77.4629 87.5199 77.4629 97.5452C77.4629 107.57 69.2668 115.71 59.1717 115.71C49.0765 115.71 40.8804 107.57 40.8804 97.5452C40.8804 87.5199 49.0765 79.3806 59.1717 79.3806Z" fill="#284356"/>
<g opacity="0.21">
<path d="M59.172 89.257C51.7755 89.257 45.5785 94.3688 43.8793 101.218C43.5794 100.027 43.4295 98.8355 43.4295 97.5948C43.4295 88.9592 50.4761 82.011 59.122 82.011C67.8178 82.011 74.8145 89.0088 74.8145 97.5948C74.8145 98.8355 74.6645 100.076 74.3647 101.218C72.7654 94.3688 66.5684 89.257 59.172 89.257Z" fill="black"/>
</g>
<path d="M50.5758 97.5451C50.5758 102.26 54.424 106.081 59.1717 106.081C63.9194 106.081 67.7676 102.26 67.7676 97.5451C67.7676 92.8303 63.9194 89.0088 59.1717 89.0088C54.424 89.0584 50.5758 92.8303 50.5758 97.5451Z" fill="#BEBEC0" stroke="#284356" stroke-width="2.5834" stroke-miterlimit="10" stroke-linecap="round" stroke-linejoin="round"/>
<path d="M54.2239 97.5452C54.2239 100.275 56.4228 102.459 59.1715 102.459C61.9202 102.459 64.1191 100.275 64.1191 97.5452C64.1191 94.8156 61.9202 92.6318 59.1715 92.6318C56.4228 92.6318 54.2239 94.8156 54.2239 97.5452Z" fill="#737987" stroke="#284356" stroke-width="1.2917" stroke-miterlimit="10" stroke-linecap="round" stroke-linejoin="round"/>
<path d="M59.1717 81.9614C50.4758 81.9614 43.4792 88.9592 43.4792 97.5452C43.4792 106.181 50.5258 113.129 59.1717 113.129C67.8675 113.129 74.8641 106.131 74.8641 97.5452C74.8641 88.9592 67.8175 81.9614 59.1717 81.9614ZM59.1717 79.3806C69.2668 79.3806 77.4629 87.5199 77.4629 97.5452C77.4629 107.57 69.2668 115.71 59.1717 115.71C49.0765 115.71 40.8804 107.57 40.8804 97.5452C40.8804 87.5199 49.0765 79.3806 59.1717 79.3806Z" fill="#284356"/>
<path opacity="0.21" d="M128.189 38.7832H132.687C131.037 38.7832 129.688 40.1232 129.688 41.761V95.7584C129.688 97.3962 131.037 98.7362 132.687 98.7362H128.189C126.539 98.7362 125.19 97.3962 125.19 95.7584V41.761C125.19 40.1232 126.539 38.7832 128.189 38.7832Z" fill="black"/>
<path d="M128.189 98.7858H152.078C153.727 98.7858 155.076 97.4458 155.076 95.808V41.761C155.076 40.1232 153.727 38.7832 152.078 38.7832H128.239C126.59 38.7832 125.24 40.1232 125.24 41.761V95.7584C125.19 97.4458 126.54 98.7858 128.189 98.7858Z" stroke="white" stroke-miterlimit="10" stroke-linecap="round" stroke-linejoin="round"/>
<g opacity="0.21">
<path d="M252.179 16.1024H18.2415L19.191 12.529C19.5908 11.0898 20.8902 10.0972 22.3895 10.0972H258.276C259.676 10.0972 260.825 11.2387 260.825 12.6283V76.7998C260.825 77.8421 259.626 78.4376 258.776 77.842L254.728 70.5464V18.6335C254.728 17.2439 253.579 16.1024 252.179 16.1024Z" fill="black"/>
</g>
<path d="M14.3436 31.8351C14.0438 33.0758 14.9433 34.267 16.2427 34.267H210.35C225.492 34.267 239.436 42.4559 246.732 55.6575L258.976 77.8421C259.826 78.4872 261.025 77.8421 261.025 76.7998V12.6283C261.025 11.2387 259.876 10.0972 258.477 10.0972H22.5897C21.0904 10.0972 19.791 11.0898 19.3912 12.529L14.3436 31.8351Z" stroke="#51C8FC" stroke-width="2.5834" stroke-miterlimit="10" stroke-linecap="round" stroke-linejoin="round"/>
<path d="M272.47 18.832C272.67 18.832 272.82 18.8817 272.97 18.9313C280.116 22.455 292.11 32.4803 292.11 59.9256V67.4198C292.11 68.7101 291.061 69.802 289.712 69.802H273.669C272.37 69.802 271.27 68.7598 271.27 67.4198V20.0232C271.27 19.6261 271.47 19.2787 271.82 19.0306C272.02 18.9313 272.27 18.832 272.47 18.832Z" stroke="#51C8FC" stroke-miterlimit="10" stroke-linecap="round" stroke-linejoin="round"/>
<path d="M271.87 7.66528C271.87 7.66528 292.41 10.4446 302.005 24.3906C309.601 35.4581 310.201 43.4485 310.201 52.9774C310.201 58.8834 310.201 68.1146 310.201 72.6309C310.201 74.0702 309.002 75.2613 307.552 75.2613H305.753C305.054 75.2613 304.354 74.9635 303.854 74.4672C303.354 73.9709 303.105 73.2761 303.105 72.5813C303.155 69.0575 303.205 62.556 303.205 55.9552C303.205 44.4411 303.354 40.2225 297.557 28.5595C291.71 16.9957 271.87 7.66528 271.87 7.66528Z" stroke="#51C8FC" stroke-width="2.5834" stroke-miterlimit="10" stroke-linecap="round" stroke-linejoin="round"/>
</svg>
