<svg width="138" height="127" viewBox="0 0 138 127" fill="none" xmlns="http://www.w3.org/2000/svg">
<path d="M0.37207 64.191C0.822508 64.0408 0.822508 63.5902 1.1228 63.2899C5.77732 55.9311 10.4319 48.7225 15.0864 41.3636C15.9873 39.8618 17.0383 39.4113 18.84 39.4113C31.3021 39.4113 43.6141 39.4113 56.0762 39.4113C56.977 39.4113 57.5776 39.1109 58.3283 38.5102C60.8808 35.9571 63.4333 33.4041 65.9858 30.851C66.7365 30.1001 66.8867 29.4995 66.8867 28.4482C66.8867 20.3385 66.8867 12.3789 66.8867 4.26918C66.8867 4.119 66.8867 3.96884 66.8867 3.81866C66.8867 1.71614 67.4872 0.815063 68.8385 0.815063C70.1899 0.815063 70.9406 1.71614 70.7904 3.81866C70.7904 4.86992 71.0908 5.17032 72.1418 5.17032C77.9975 5.17032 83.703 5.17032 89.5586 5.17032C90.6097 5.17032 91.5106 5.32042 92.1111 6.2215C92.7117 7.27276 92.1112 8.02374 91.5106 8.92482C90.4595 10.4266 88.6578 12.0786 88.6578 13.5804C88.6578 15.0822 90.4595 16.584 91.5106 18.0858C92.1112 18.9868 92.5616 19.8879 91.961 20.9392C91.3604 21.9905 90.3094 21.9904 89.4085 21.9904C83.5529 21.9904 77.8473 21.9904 71.9916 21.9904C71.0907 21.9904 70.7904 22.1406 70.7904 23.1919C70.9406 25.4446 70.34 27.8474 71.0907 29.7998C71.8415 31.7521 73.9435 32.9536 75.445 34.4554C76.7963 35.807 78.1476 37.1586 79.4989 38.5102C80.0995 39.1109 80.7001 39.4113 81.6009 39.4113C94.063 39.4113 106.525 39.4113 118.987 39.4113C120.639 39.4113 121.69 40.012 122.591 41.3636C127.095 48.7225 131.75 55.9311 136.404 63.1397C137.005 64.0408 137.455 64.7917 137.005 65.8429C136.404 66.8942 135.353 67.0444 134.302 67.0444C133.101 67.0444 131.599 66.7441 130.999 67.1946C130.248 67.7953 130.849 69.4473 130.849 70.4986C130.849 87.4689 130.849 104.439 130.849 121.56C130.849 122.761 131.149 123.061 132.35 122.911C133.251 122.761 134.302 122.911 135.353 122.911C136.554 122.911 137.305 123.812 137.455 124.864C137.455 125.915 136.704 126.816 135.503 126.966C135.203 126.966 134.753 126.966 134.452 126.966C90.91 126.966 47.3677 126.966 3.82545 126.966C2.47414 126.966 1.42311 126.816 0.67238 125.615C0.67238 125.164 0.67238 124.714 0.67238 124.263C0.972672 123.062 1.87356 122.611 3.07472 122.461C3.9756 122.461 4.7263 122.461 5.62717 122.461C6.3779 122.461 6.67821 122.16 6.67821 121.41C6.67821 120.959 6.67821 120.508 6.67821 120.058C6.67821 103.388 6.67821 86.5678 6.67821 69.8978C6.67821 67.4949 6.67821 67.495 4.42602 67.495C3.97559 67.495 3.52516 67.495 3.07472 67.495C2.0237 67.3448 1.12282 66.8942 0.67238 65.8429C0.372089 65.2422 0.37207 64.7917 0.37207 64.191Z" fill="black"/>
<path d="M10.8826 94.9779C10.8826 86.1173 10.8826 77.1065 10.8826 68.2459C10.8826 67.1946 11.1829 66.8942 12.2339 66.8942C19.2907 66.8942 26.3476 66.8942 33.4044 66.8942C34.7558 66.8942 35.8068 66.4437 36.8578 65.5426C47.2179 55.1802 57.5779 44.8178 67.938 34.4554C68.8388 33.5543 69.1391 33.7045 70.04 34.4554C80.4001 44.8178 90.7601 55.1802 101.12 65.6928C102.021 66.5939 102.922 66.8942 104.123 66.8942C111.33 66.8942 118.387 66.8942 125.594 66.8942C126.495 66.8942 126.795 67.0444 126.795 68.0957C126.795 85.9671 126.795 103.839 126.795 121.71C126.795 122.761 126.495 122.911 125.594 122.911C112.081 122.911 98.5677 122.911 85.0546 122.911C84.0036 122.911 83.7033 122.611 83.7033 121.56C83.7033 112.849 83.7033 104.289 83.7033 95.5786C83.7033 91.9743 82.0517 89.5714 78.8986 88.6703C78.1479 88.5201 77.3972 88.5202 76.6465 88.5202C71.3913 88.5202 66.1362 88.5202 60.8811 88.5202C56.5269 88.5202 53.9744 91.0732 53.9744 95.4284C53.9744 104.139 53.9744 112.699 53.9744 121.41C53.9744 122.611 53.6741 122.761 52.473 122.761C38.9599 122.761 25.5969 122.761 12.0838 122.761C10.8826 122.761 10.7324 122.461 10.7324 121.41C10.8826 112.699 10.8826 103.839 10.8826 94.9779Z" fill="#FEFEFE"/>
<path d="M6.37793 62.8393C6.37793 62.3888 6.67825 62.2387 6.82839 61.9383C10.582 56.0813 14.3357 50.2242 17.9392 44.3672C18.2395 43.7665 18.5397 43.4662 19.2905 43.4662C30.4013 43.4662 41.6622 43.4662 52.773 43.4662C53.0733 43.9167 52.6228 44.0669 52.4727 44.2171C46.4669 50.2243 40.461 56.3816 34.3051 62.3888C33.8546 62.8394 33.5543 62.9896 32.9537 62.9896C24.2453 62.9896 15.3867 62.9896 6.67824 62.9896C6.52809 62.9896 6.52808 62.9895 6.37793 62.8393Z" fill="#FEFEFE"/>
<path d="M131.299 62.9895C126.795 62.9895 122.44 62.9895 118.086 62.9895C113.732 62.9895 109.378 62.9895 105.024 62.9895C104.423 62.9895 103.822 62.9895 103.372 62.3888C97.216 56.2314 91.06 50.074 84.9041 43.9167C84.7539 43.7665 84.7539 43.7665 84.7539 43.6163C85.0542 43.3159 85.5046 43.4662 85.9551 43.4662C96.6154 43.4662 107.276 43.4662 117.936 43.4662C118.837 43.4662 119.438 43.7664 119.888 44.5173C123.492 50.3744 127.245 56.0812 130.999 61.9383C130.999 62.2386 131.299 62.3888 131.299 62.9895Z" fill="#FEFEFE"/>
<path d="M70.79 112.098C70.79 108.794 70.79 105.641 70.79 102.337C70.79 101.586 70.9402 101.285 71.6909 101.285C73.9431 101.285 76.3455 101.285 78.5976 101.285C79.3484 101.285 79.6487 101.436 79.6487 102.186C79.6487 108.794 79.6487 115.402 79.6487 122.01C79.6487 122.761 79.4985 123.061 78.7478 123.061C76.4956 123.061 74.0933 123.061 71.8411 123.061C70.9402 123.061 70.79 122.761 70.79 122.01C70.79 118.556 70.79 115.252 70.79 112.098Z" fill="#FEFEFE"/>
<path d="M57.8777 112.098C57.8777 108.794 57.8777 105.641 57.8777 102.337C57.8777 101.436 58.0278 101.135 58.9287 101.285C61.1809 101.285 63.4331 101.285 65.6852 101.285C66.436 101.285 66.5861 101.436 66.5861 102.187C66.5861 108.794 66.5861 115.402 66.5861 122.01C66.5861 122.761 66.436 123.062 65.6852 123.062C63.4331 123.062 61.0307 123.062 58.7785 123.062C57.8777 123.062 57.7275 122.761 57.7275 122.01C58.0278 118.706 57.8777 115.402 57.8777 112.098Z" fill="#FEFEFE"/>
<path d="M86.4052 9.2251C85.6545 10.2764 85.0539 11.3276 84.4533 12.2287C83.7026 13.28 83.7026 14.181 84.4533 15.2323C85.0539 16.1334 85.6545 17.0345 86.4052 18.2359C84.9038 18.2359 83.7026 18.2359 82.3513 18.2359C78.8979 18.2359 75.2944 18.2359 71.8411 18.2359C70.9402 18.2359 70.79 17.9356 70.79 17.1847C70.79 14.932 70.79 12.6793 70.79 10.5768C70.79 9.82585 70.7901 9.52548 71.8411 9.52548C76.6457 9.22512 81.4504 9.2251 86.4052 9.2251Z" fill="#FEFEFE"/>
<path d="M68.6884 97.2306C65.3852 97.2306 62.2321 97.2306 58.9289 97.2306C58.028 97.2306 57.8779 96.9302 57.8779 96.1793C57.8779 93.476 58.4785 92.7252 61.3313 92.7252C66.4362 92.7252 71.5412 92.7252 76.6462 92.7252C79.0485 92.7252 80.3998 94.5273 79.6491 96.78C79.4989 97.3808 78.8983 97.2306 78.598 97.2306C75.2948 97.2306 71.9916 97.2306 68.6884 97.2306Z" fill="#FEFEFE"/>
<path d="M53.9742 67.3448C53.824 59.2351 60.4304 52.477 68.6885 52.3268C76.7963 52.1766 83.5529 58.7845 83.703 67.0444C83.8532 75.1541 77.2468 81.9122 68.9888 82.0624C60.8809 82.2126 54.1243 75.6047 53.9742 67.3448Z" fill="black"/>
<path d="M107.426 83.5641C107.426 81.3114 107.426 79.0588 107.426 76.9563C107.426 74.8537 108.326 73.9526 110.428 73.8024C113.281 73.8024 116.284 73.8024 119.137 73.8024C121.089 73.8024 122.14 74.8537 122.14 76.9563C122.14 81.4617 122.14 85.9671 122.14 90.4725C122.14 92.1244 121.389 92.8753 119.737 92.8753C116.434 92.8753 113.131 92.8753 109.678 92.8753C108.026 92.8753 107.426 92.1244 107.275 90.4725C107.426 88.0696 107.426 85.8168 107.426 83.5641Z" fill="black"/>
<path d="M30.101 83.5641C30.101 85.8168 30.101 88.0695 30.101 90.3222C30.101 91.9742 29.3503 92.7252 27.6987 92.7252C24.3955 92.7252 21.0923 92.7252 17.7891 92.7252C16.1375 92.7252 15.3867 91.9742 15.3867 90.3222C15.3867 85.8168 15.3867 81.3114 15.3867 76.806C15.3867 74.8537 16.4377 73.8024 18.3896 73.8024C21.2424 73.8024 24.0952 73.8024 26.948 73.8024C29.05 73.8024 30.101 74.8537 30.101 76.9563C30.101 79.0588 30.101 81.3114 30.101 83.5641Z" fill="black"/>
<path d="M88.207 83.414C88.207 81.1613 88.207 79.0587 88.207 76.806C88.207 74.5533 89.1079 73.6523 91.3601 73.6523C94.0627 73.6523 96.9155 73.6523 99.6181 73.6523C101.87 73.6523 102.921 74.7036 102.921 76.9563C102.921 81.3115 102.921 85.6667 102.921 90.0219C102.921 91.9743 102.171 92.7251 100.219 92.7251C97.0656 92.7251 94.0627 92.7251 90.9097 92.7251C88.9578 92.7251 88.207 91.9742 88.207 90.1721C88.207 87.9194 88.207 85.6667 88.207 83.414Z" fill="black"/>
<path d="M49.3197 83.414C49.3197 85.6667 49.3197 87.9194 49.3197 90.1721C49.3197 91.824 48.569 92.5749 46.9174 92.5749C43.6142 92.5749 40.4611 92.5749 37.1579 92.5749C35.3562 92.5749 34.6055 91.8241 34.6055 90.0219C34.6055 85.6667 34.6055 81.1612 34.6055 76.806C34.6055 74.5533 35.6565 73.6523 37.7585 73.5021C40.6113 73.5021 43.3139 73.5021 46.1667 73.5021C48.4189 73.5021 49.3197 74.5534 49.3197 76.6559C49.4699 79.0588 49.3197 81.3115 49.3197 83.414Z" fill="black"/>
<path d="M107.426 107.743C107.426 105.791 107.426 103.688 107.426 101.736C107.426 100.234 108.177 99.4833 109.678 99.4833C112.981 99.4833 116.284 99.4833 119.738 99.4833C121.389 99.4833 122.14 100.234 122.14 101.886C122.14 105.941 122.14 109.846 122.14 113.901C122.14 115.552 121.389 116.303 119.738 116.303C116.435 116.303 113.281 116.303 109.978 116.303C108.176 116.303 107.576 115.553 107.426 113.75C107.426 111.798 107.426 109.696 107.426 107.743Z" fill="black"/>
<path d="M88.207 107.893C88.207 105.941 88.207 103.989 88.207 102.036C88.207 100.234 88.8076 99.4833 90.6094 99.4833C93.9126 99.4833 97.0656 99.4833 100.369 99.4833C102.02 99.4833 102.771 100.234 102.921 101.886C102.921 105.941 102.921 109.846 102.921 113.901C102.921 115.552 102.171 116.303 100.369 116.303C97.0656 116.303 93.9126 116.303 90.6094 116.303C88.9578 116.303 88.207 115.552 88.207 113.901C88.207 111.798 88.207 109.846 88.207 107.893Z" fill="black"/>
<path d="M49.3195 107.893C49.3195 109.846 49.3195 111.948 49.3195 113.901C49.3195 115.552 48.5688 116.303 46.9172 116.303C43.614 116.303 40.3108 116.303 36.8574 116.303C35.356 116.303 34.4551 115.553 34.4551 114.051C34.4551 109.996 34.4551 105.791 34.4551 101.736C34.4551 100.234 35.2058 99.4833 36.8574 99.4833C40.1606 99.4833 43.4638 99.4833 46.9172 99.4833C48.4186 99.4833 49.1693 100.234 49.1693 101.736C49.4696 103.688 49.3195 105.791 49.3195 107.893Z" fill="black"/>
<path d="M30.101 107.893C30.101 109.846 30.101 111.798 30.101 113.75C30.101 115.553 29.3503 116.153 27.6987 116.303C24.3955 116.303 21.0923 116.303 17.7891 116.303C16.1375 116.303 15.3867 115.553 15.3867 113.75C15.3867 109.846 15.3867 105.791 15.3867 101.886C15.3867 100.084 16.1375 99.4833 17.7891 99.4833C21.0923 99.4833 24.3955 99.4833 27.6987 99.4833C29.3503 99.4833 30.101 100.234 30.101 101.886C30.101 103.838 30.101 105.941 30.101 107.893Z" fill="black"/>
<path d="M79.4992 67.9455C79.199 73.8025 73.7937 78.9086 67.0371 77.8573C61.782 77.1064 57.1275 72.1505 58.0284 65.5426C58.7791 60.2863 63.5838 55.6307 70.3403 56.5318C75.7456 57.1325 80.0998 62.3888 79.4992 67.9455Z" fill="#FEFEFE"/>
<path d="M115.083 82.3627C111.479 82.3627 111.63 82.3627 111.479 78.9086C111.479 78.0075 111.63 77.7072 112.681 77.7072C114.182 77.8573 115.834 77.7072 117.335 77.7072C118.086 77.7072 118.386 78.0075 118.236 78.7584V78.9086C118.236 79.9598 118.536 81.4616 118.086 82.0623C117.335 82.8132 115.984 82.2125 115.083 82.3627Z" fill="#FDFDFD"/>
<path d="M114.934 86.2674C115.534 86.2674 116.135 86.4176 116.735 86.2674C117.937 86.1173 118.237 86.5678 118.087 87.7692C118.087 88.5201 117.937 88.8204 117.186 88.8204C115.534 88.8204 114.033 88.6702 112.381 88.8204C111.33 88.8204 111.33 88.3699 111.33 87.619C111.33 87.0183 111.03 86.2674 112.231 86.4176C113.282 86.4176 114.183 86.2674 114.934 86.2674Z" fill="#FBFBFB"/>
<path d="M22.8938 82.3627C21.6926 82.2125 20.3414 82.8132 19.5906 82.0623C18.99 81.4616 19.4405 79.9598 19.4405 78.9086C19.2903 77.8573 19.7407 77.557 20.6416 77.7072C22.1431 77.8573 23.7947 77.7072 25.2961 77.7072C25.8967 77.7072 26.197 77.8573 26.0469 78.4581C26.0469 78.6082 26.0469 78.7584 26.0469 78.9086C25.8967 79.9598 26.4973 81.4616 25.7466 82.0623C25.2961 82.663 23.7947 82.3627 22.8938 82.3627Z" fill="#FDFDFD"/>
<path d="M22.7436 88.6703C22.143 88.6703 21.3923 88.6703 20.7917 88.6703C19.7407 88.8204 19.4404 88.3699 19.4404 87.3186C19.4404 86.4175 19.7407 86.1172 20.6416 86.1172C22.2932 86.2674 23.7947 86.1172 25.4463 86.1172C26.4973 86.1172 26.197 86.7179 26.197 87.3186C26.197 87.7691 26.6474 88.6703 25.4463 88.6703C24.5454 88.6703 23.6445 88.6703 22.7436 88.6703Z" fill="#FBFBFB"/>
<path d="M95.564 82.3627C94.3628 82.2125 92.7113 82.8133 92.411 82.2126C91.8104 81.1613 92.2608 79.6595 92.1107 78.4581C92.1107 78.0075 92.411 77.8573 92.8614 77.8573C94.6631 77.8573 96.4649 77.8573 98.2666 77.8573C98.8672 77.8573 99.0174 78.0075 99.0174 78.6082C99.0174 78.7584 99.0174 78.9086 99.0174 79.209C99.0174 82.3627 99.0173 82.3627 95.564 82.3627Z" fill="#FDFDFD"/>
<path d="M95.5641 86.2674C96.1647 86.2674 96.9154 86.4176 97.516 86.2674C98.7172 86.1173 99.0175 86.5678 98.8673 87.7692C98.8673 88.5201 98.7172 88.8204 97.8163 88.8204C96.1647 88.8204 94.5131 88.8204 92.8615 88.8204C91.8105 88.8204 91.9606 88.2197 91.9606 87.619C91.9606 87.0183 91.6603 86.2674 92.7113 86.4176C93.9125 86.4176 94.6632 86.2674 95.5641 86.2674Z" fill="#FAFAFA"/>
<path d="M42.1126 82.3627C38.6592 82.3627 38.8093 82.3627 38.6592 79.0587C38.6592 78.1576 38.8094 77.8573 39.8604 77.8573C41.512 78.0075 43.0134 77.8573 44.665 77.8573C45.2656 77.8573 45.5659 78.0075 45.4157 78.6082C45.4157 78.7584 45.4157 78.9085 45.4157 79.0587C45.4157 82.3627 45.4158 82.3627 42.1126 82.3627Z" fill="#FDFDFD"/>
<path d="M41.9624 88.6703C41.3618 88.6703 40.6111 88.6703 40.0105 88.6703C38.9595 88.8204 38.6592 88.52 38.6592 87.3186C38.6592 86.4175 38.9595 86.1172 39.8604 86.1172C41.512 86.1172 43.0134 86.1172 44.665 86.1172C45.716 86.1172 45.4157 86.7179 45.4157 87.3186C45.4157 87.7691 45.8662 88.6703 44.665 88.6703C43.7641 88.6703 42.8633 88.6703 41.9624 88.6703Z" fill="#FAFAFA"/>
<path d="M114.783 112.249C114.182 112.249 113.582 112.249 112.981 112.249C111.48 112.249 111.179 111.798 111.48 110.296C111.63 109.846 111.78 109.846 112.08 109.846C113.882 109.846 115.684 109.846 117.335 109.846C118.536 109.846 117.936 110.597 118.086 111.197C118.086 111.648 118.386 112.399 117.335 112.399C116.585 112.248 115.684 112.249 114.783 112.249Z" fill="#FCFCFC"/>
<path d="M114.934 103.388C115.534 103.388 116.135 103.388 116.735 103.388C118.387 103.388 118.387 103.388 118.237 105.04C118.237 105.49 118.087 105.791 117.636 105.791C115.835 105.791 114.033 105.791 112.381 105.791C111.18 105.791 111.781 104.89 111.63 104.289C111.48 103.688 111.63 103.238 112.381 103.388C113.132 103.538 114.033 103.388 114.934 103.388Z" fill="#FCFCFC"/>
<path d="M95.5641 112.249C94.9635 112.249 94.3629 112.249 93.7623 112.249C92.2609 112.249 91.9606 111.798 92.2609 110.296C92.411 109.695 92.7113 109.846 93.0116 109.846C94.8134 109.846 96.465 109.846 98.2667 109.846C99.3177 109.846 99.0175 110.446 99.0175 111.047C99.0175 111.648 99.3177 112.399 98.2667 112.399C97.2157 112.248 96.4649 112.249 95.5641 112.249Z" fill="#FCFCFC"/>
<path d="M95.5647 103.388C96.1652 103.388 96.7658 103.388 97.3664 103.388C98.7177 103.388 99.3183 104.139 98.8679 105.49C98.7177 105.791 98.5676 105.791 98.2673 105.791C96.4656 105.791 94.6638 105.791 92.8621 105.791C91.6609 105.791 92.2615 104.89 92.2615 104.439C92.1113 103.989 92.1113 103.388 93.0122 103.388C93.9131 103.538 94.6638 103.388 95.5647 103.388Z" fill="#FCFCFC"/>
<path d="M42.1122 109.846C42.7128 109.846 43.3134 109.846 43.914 109.846C45.4154 109.846 45.7157 110.446 45.4154 111.798C45.2653 112.399 44.965 112.249 44.6647 112.249C43.0131 112.249 41.3615 112.249 39.5597 112.249C38.5087 112.249 38.6588 111.648 38.6588 111.047C38.6588 110.446 38.3586 109.695 39.4096 109.846C40.3105 109.846 41.2114 109.846 42.1122 109.846Z" fill="#FCFCFC"/>
<path d="M42.1127 103.388C42.7133 103.388 43.3139 103.388 43.9144 103.388C45.1156 103.238 45.4159 103.538 45.4159 104.74C45.4159 105.49 45.2658 105.791 44.3649 105.791C42.7133 105.791 41.2118 105.641 39.5602 105.791C38.3591 105.791 38.6593 105.04 38.6593 104.439C38.6593 103.838 38.5092 103.238 39.5602 103.238C40.4611 103.538 41.2118 103.388 42.1127 103.388Z" fill="#FCFCFC"/>
<path d="M22.7438 112.249C22.1432 112.249 21.5426 112.249 20.942 112.249C19.4406 112.249 19.1403 111.648 19.4406 110.296C19.5907 109.846 19.891 109.846 20.1913 109.846C21.9931 109.846 23.7948 109.846 25.4464 109.846C26.4974 109.846 26.047 110.597 26.047 111.047C26.047 111.498 26.4974 112.249 25.4464 112.249C24.5455 112.249 23.6446 112.249 22.7438 112.249Z" fill="#FCFCFC"/>
<path d="M22.8944 103.388C23.495 103.388 24.0956 103.388 24.6962 103.388C26.1976 103.388 26.4979 103.838 26.1976 105.34C26.0475 105.791 25.8973 105.791 25.5971 105.791C23.7953 105.791 21.9936 105.791 20.342 105.791C19.1408 105.791 19.7414 105.04 19.5912 104.439C19.5912 103.838 19.4411 103.238 20.342 103.388C21.0927 103.538 21.9935 103.388 22.8944 103.388Z" fill="#FCFCFC"/>
<path d="M65.5356 69.1469C64.4846 69.1469 63.4336 69.1469 62.3826 69.1469C61.1814 68.9967 60.4307 68.396 60.4307 67.1946C60.4307 65.9931 61.1814 65.2423 62.3826 65.2423C63.4336 65.2423 64.4846 65.0921 65.3855 65.2423C66.4365 65.3924 66.887 65.0921 66.7368 63.8906C66.5867 62.9895 66.7368 61.9382 66.7368 61.0372C66.887 59.6855 67.4875 58.9347 68.6887 58.9347C69.8898 58.9347 70.6406 59.6855 70.7907 61.0372C70.7907 63.1397 70.7907 65.0921 70.7907 67.1946C70.7907 68.5462 70.04 69.2971 68.5385 69.2971C67.6377 69.1469 66.5866 69.1469 65.5356 69.1469Z" fill="black"/>
</svg>
