<svg width="80" height="126" viewBox="0 0 80 126" fill="none" xmlns="http://www.w3.org/2000/svg">
<path d="M50.8253 125.215C53.8283 125.065 56.8312 124.915 59.8341 124.464C62.9872 124.014 66.2904 123.563 69.1432 122.061C70.4945 121.311 71.2451 120.259 71.2451 118.607C71.2451 101.036 71.2451 83.4652 71.2451 65.8941C71.2451 63.0407 70.7947 62.2898 68.0921 61.3887C67.1912 61.0884 67.1912 60.788 67.4915 60.0371C69.1431 55.3815 70.7947 50.726 72.5965 46.2206C73.1971 44.7188 73.3472 43.217 72.7466 41.8654C72.5964 41.2646 72.7467 40.9643 73.1971 40.6639C74.8487 39.1621 76.5003 37.5101 78.1519 36.0083C78.9026 35.4076 79.2029 34.6567 79.0527 33.7556C78.1519 28.4993 77.251 23.3932 76.2 18.1369C75.7496 15.5839 74.2481 15.1333 72.2962 16.7853C68.3924 20.0893 64.6387 23.3932 60.7349 26.547C59.6839 27.4481 59.3836 28.3492 59.5338 29.7008C59.8341 31.9535 60.1344 34.056 60.4347 36.3087C60.4347 36.7592 60.4346 37.0596 59.9842 37.36C58.4827 38.261 57.5819 39.6127 57.1315 41.1145C54.8793 47.422 52.4769 53.8798 50.2247 60.1873C50.0746 60.4877 50.0746 60.788 49.7743 60.9382C49.7743 50.726 49.7743 40.664 49.7743 30.4517C49.7743 29.5506 49.6242 28.7997 49.1738 28.0488C46.7714 23.9939 44.3691 19.7889 42.1169 15.5839C40.9157 13.4814 39.114 13.4814 37.9128 15.5839C35.5105 19.7889 33.1081 24.1441 30.5557 28.3492C30.4055 28.6495 30.4055 28.9499 29.955 29.1001C26.802 20.2394 23.4988 11.3788 20.3458 2.5182C20.0455 1.61712 19.595 0.716043 18.6941 0.265503C18.3938 0.265503 18.0936 0.265503 17.6432 0.265503C17.6432 0.265503 17.6431 0.415738 17.493 0.415738C12.5382 2.2179 7.73351 4.02006 2.7787 5.67203C0.526512 6.42293 0.226257 7.17383 1.12713 9.42653C7.13296 25.9463 13.1388 42.3159 19.1446 58.8357C19.4449 59.7367 19.595 60.1873 18.2437 60.3375C15.8414 60.6378 13.439 61.0884 11.1868 61.9895C9.53522 62.7404 8.63442 63.7917 8.63442 65.744C8.63442 83.1649 8.63442 100.586 8.63442 118.007C8.63442 121.01 9.08478 121.761 11.9376 122.963C12.5381 123.113 12.9886 123.263 13.5892 123.413C18.2437 124.765 23.0484 125.065 27.8531 125.365C27.7029 125.215 34.9099 126.116 50.8253 125.215Z" fill="black"/>
<path d="M67.341 68.2971C67.341 68.7476 67.341 69.1982 67.341 69.4986C67.341 85.5678 67.341 101.637 67.341 117.706C67.341 118.758 67.0407 119.208 66.1399 119.358C62.2361 120.259 58.3322 120.71 54.2783 121.01C46.0203 121.611 37.7623 121.761 29.5043 121.311C24.2492 121.01 18.8439 120.71 13.739 119.358C12.8381 119.058 12.3877 118.758 12.3877 117.706C12.3877 101.637 12.3877 85.5678 12.3877 69.4986C12.3877 69.048 12.3877 68.7476 12.3877 68.2971C24.2492 71.3007 54.5786 71.4508 67.341 68.2971Z" fill="#FEFEFE"/>
<path d="M30.1048 53.4293C29.0538 52.378 28.1529 52.5281 27.252 52.8285C25.7505 53.4292 24.2491 53.8798 22.7476 54.4805C21.9969 54.7809 21.6966 54.6307 21.5465 53.8798C21.5465 53.7296 21.5465 53.7296 21.3964 53.5794C21.0961 52.8285 20.4955 51.9274 20.6456 51.3267C20.7958 50.5758 21.9969 50.726 22.5975 50.2754C23.4984 49.6747 23.9488 48.7737 23.6486 47.7224C23.3483 46.8214 22.2972 46.3707 21.2462 46.5209C20.4954 46.6711 19.7447 47.5723 18.994 46.9715C18.5435 46.521 18.5436 45.4697 18.0931 44.869C17.4926 43.8177 17.7928 43.3672 18.994 43.0668C20.3453 42.6163 21.6966 42.1657 23.198 41.565C24.6995 40.9643 25.3001 40.0632 24.8497 38.8618C24.3993 37.6604 23.3482 37.36 21.8468 37.8105C20.3453 38.4112 18.6937 39.012 17.1922 39.4625C16.5916 39.6127 16.2914 39.6127 16.1413 39.0119C16.1413 38.8618 15.9911 38.5614 15.9911 38.4113C15.6908 37.6604 15.0902 36.9094 15.2403 36.3087C15.3905 35.5578 16.5916 35.708 17.1922 35.4077C18.2432 34.8069 18.6937 33.9059 18.2433 32.8546C17.943 31.8033 16.8919 31.503 15.6908 31.8033C13.5887 32.404 13.5888 32.404 12.838 30.3015C12.2375 28.7997 12.2375 28.7998 13.8891 28.1991C15.2404 27.7485 16.5916 27.1478 17.9429 26.6973C19.2943 26.2467 19.7447 25.1954 19.4444 24.1442C18.994 22.9427 17.943 22.4922 16.5917 22.9428C14.9401 23.5435 13.2885 24.1441 11.6369 24.7448C11.0363 24.895 10.736 24.895 10.5859 24.2943C10.5859 24.1441 10.4357 23.994 10.4357 23.8438C10.1354 23.0929 9.53478 22.1918 9.68493 21.5911C9.83507 20.8402 11.0363 20.9904 11.6369 20.6901C12.6879 20.0893 13.1383 19.1882 12.6878 18.137C12.2374 17.0857 11.3366 16.7853 10.1354 17.0857C8.18354 17.6864 8.18347 17.6864 7.43274 15.734C7.2826 15.4337 7.28267 15.1333 7.13252 14.9831C6.83223 14.3824 6.98236 14.0821 7.58294 13.7817C9.23455 13.181 10.736 12.5803 12.3876 11.9796C13.7389 11.3788 14.3395 10.4778 13.8891 9.42657C13.4386 8.22513 12.3876 7.92475 11.0363 8.37529C9.38467 8.97601 7.73309 9.57675 6.08149 10.1775C5.18061 10.4778 5.18059 10.0273 5.03045 9.42657C4.8803 8.97603 4.58003 8.52541 5.33076 8.22505C8.78411 7.02361 12.3876 5.82218 15.841 4.47056C16.7418 4.1702 16.7419 4.77092 16.892 5.22146C20.7958 16.0344 24.6995 26.8474 28.7535 37.6604C29.354 39.4625 29.8045 41.2646 29.6544 43.0668C29.9547 46.6711 30.1048 49.9751 30.1048 53.4293Z" fill="#FEFEFE"/>
<path d="M45.7208 49.0741C45.7208 54.6307 45.7208 60.0372 45.7208 65.5938C45.7208 66.4949 45.4206 66.6451 44.6699 66.6451C41.8171 66.6451 41.8171 66.6451 41.8171 63.9419C41.8171 60.6379 41.8171 57.3339 41.8171 54.03C41.8171 52.2278 41.2165 51.3268 39.8652 51.3268C38.5139 51.3268 37.9133 52.2278 37.9133 54.03C37.9133 57.9347 37.9133 61.8394 37.9133 65.7441C37.9133 66.495 37.7632 66.7953 36.8623 66.7953C33.8594 66.7953 33.8594 66.7953 33.8594 63.7917C33.8594 53.4293 33.8594 43.0669 33.8594 32.7045C33.8594 31.8034 34.0095 31.503 35.0605 31.503C38.2136 31.6532 41.3667 31.6532 44.6699 31.503C45.5708 31.503 45.7208 31.8034 45.7208 32.7045C45.7208 37.9608 45.7208 43.5174 45.7208 49.0741Z" fill="#FEFEFE"/>
<path d="M52.0264 66.1945C53.5278 61.8393 55.1795 57.6343 56.6809 53.4293C58.0323 49.6748 59.3835 45.77 60.7348 42.0155C61.4855 40.0632 62.3864 39.6127 64.3383 40.3636C65.2392 40.6639 66.2903 41.1145 67.1911 41.4149C68.9929 42.1658 69.4433 43.0668 68.8427 44.869C66.8908 50.2755 64.9389 55.6819 62.987 61.0884C62.6867 61.8393 62.3864 62.5902 62.2363 63.3411C61.936 64.9931 60.8849 65.5938 59.2333 65.5938C56.9812 65.744 54.5788 66.1945 52.0264 66.1945Z" fill="#FEFEFE"/>
<path d="M73.6477 25.646C74.0981 27.8987 74.3984 30.1514 74.8488 32.4041C74.999 33.155 74.8488 33.7557 74.2482 34.2063C72.8969 35.4077 71.6957 36.4589 70.4946 37.6604C70.0441 38.1109 69.7439 38.1109 69.1433 37.9608C67.792 37.36 66.4407 36.9095 65.0893 36.459C64.4888 36.3088 64.1885 35.8582 64.1885 35.2574C64.0384 33.4553 63.8882 31.6532 63.5879 29.851C63.5879 29.4005 63.5879 29.1001 64.0383 28.6496C65.9902 27.1478 67.792 25.4958 69.894 23.6937C69.2934 25.3456 68.843 26.6973 68.3926 28.1991C67.9421 29.5507 68.2424 30.6019 69.4436 31.0524C70.6448 31.503 71.5456 30.9022 72.1462 29.5506C72.5967 28.199 73.1972 26.8474 73.6477 25.4957C73.4975 25.6459 73.4975 25.646 73.6477 25.646Z" fill="#FEFEFE"/>
<path d="M25.9015 65.8942C26.502 65.5938 27.2528 65.4436 27.8533 65.1433C28.9044 64.6927 29.3548 63.6415 29.0545 62.7404C28.7542 61.8394 27.8534 61.2386 26.6522 61.3888C26.502 61.3888 26.502 61.3888 26.3519 61.3888C25.6012 61.539 24.7003 62.2898 24.4 61.8393C23.7994 60.9382 23.4991 59.7368 23.1988 58.6856C23.0486 58.235 23.4991 58.235 23.7994 58.0848C25.1507 57.6343 26.502 57.1837 27.8533 56.583C28.6041 56.2827 29.3548 56.1325 30.1055 55.3816C30.1055 58.9859 30.1055 62.2898 30.1055 65.5938C30.1055 66.1945 29.8052 66.0443 29.3548 66.0443C28.3038 65.8941 27.1026 65.8942 26.0516 65.744C25.9014 66.0444 25.9015 66.0444 25.9015 65.8942Z" fill="#FEFEFE"/>
<path d="M44.2189 27.4482C41.216 27.4482 38.3633 27.4482 35.3604 27.4482C36.8618 24.8951 38.2131 22.342 39.7145 19.6388C41.3661 22.342 42.7174 24.7449 44.2189 27.4482Z" fill="#FEFEFE"/>
<path d="M21.6975 65.744C19.2951 65.5939 17.3433 65.1433 15.2412 64.6928C16.8928 64.092 18.6946 63.7916 20.4963 63.7916C21.3972 63.7916 21.0969 64.9931 21.6975 65.744Z" fill="#F9F9F9"/>
<path d="M41.8168 41.2646C41.8168 42.4661 41.8168 43.8177 41.8168 45.0191C41.8168 46.3708 40.916 47.1217 39.865 47.1217C38.8139 47.1217 37.9131 46.2206 37.9131 45.0191C37.9131 42.4661 37.9131 39.9131 37.9131 37.36C37.9131 36.0084 38.8139 35.2574 39.865 35.2574C40.916 35.2574 41.6667 36.1586 41.8168 37.36C41.8168 38.7116 41.8168 40.0632 41.8168 41.2646Z" fill="black"/>
</svg>
